<?xml version="1.0" encoding="utf-8"?>
<!-- Generator: Adobe Illustrator 15.0.2, SVG Export Plug-In . SVG Version: 6.00 Build 0)  -->
<!DOCTYPE svg PUBLIC "-//W3C//DTD SVG 1.1//EN" "http://www.w3.org/Graphics/SVG/1.1/DTD/svg11.dtd">
<svg version="1.1"
	 id="Calque_1" xmlns:svg="http://www.w3.org/2000/svg" xmlns:cc="http://creativecommons.org/ns#" xmlns:rdf="http://www.w3.org/1999/02/22-rdf-syntax-ns#" xmlns:inkscape="http://www.inkscape.org/namespaces/inkscape" xmlns:sodipodi="http://sodipodi.sourceforge.net/DTD/sodipodi-0.dtd" xmlns:dc="http://purl.org/dc/elements/1.1/"
	 xmlns="http://www.w3.org/2000/svg" xmlns:xlink="http://www.w3.org/1999/xlink" x="0px" y="0px" width="500px" height="500px"
	 viewBox="56 146 500 500" enable-background="new 56 146 500 500" xml:space="preserve">
<g transform="translate(0,-952.36218)">
	<path d="M55.082,1102.224v492.277h93.139v-367.582c0-3.21,2.91-6.12,6.12-6.12h303.322c3.21,0,6.12,2.91,6.12,6.12v367.582h93.139
		v-492.277H55.082z M206.552,1133.206c0.445-0.049,0.894-0.049,1.339,0h196.222c3.377,0.006,6.113,2.743,6.119,6.12v44.561
		c-0.006,3.377-2.742,6.114-6.119,6.12H207.891c-3.377-0.006-6.114-2.743-6.12-6.12v-44.561
		C201.705,1136.408,203.705,1133.848,206.552,1133.206L206.552,1133.206z M486.159,1353.525c0.19,0,0.386,0,0.575,0h47.239
		c3.211,0.001,6.12,2.911,6.12,6.12v101.363c-0.001,3.209-2.909,6.119-6.12,6.119h-47.239c-3.209,0-6.119-2.91-6.119-6.119
		c0-33.832-0.007-67.521,0-101.363c0-3.027,2.532-5.836,5.546-6.12H486.159z"/>
	<path d="M160.512,1233.124h139.484v361.353H160.512V1233.124z"/>
	<path d="M312.259,1233.124h139.292v361.353H312.259V1233.124z"/>
	<path d="M213.945,1145.398h184.118v32.434H213.945V1145.398z"/>
	<path d="M492.936,1365.71h34.87v38.512h-34.87V1365.71z"/>
	<path d="M492.936,1416.483h34.87v38.32h-34.87V1416.483z"/>
</g>
</svg>
