<?xml version="1.0" encoding="utf-8"?>
<!-- Generator: Adobe Illustrator 15.0.2, SVG Export Plug-In . SVG Version: 6.00 Build 0)  -->
<!DOCTYPE svg PUBLIC "-//W3C//DTD SVG 1.1//EN" "http://www.w3.org/Graphics/SVG/1.1/DTD/svg11.dtd">
<svg version="1.1" id="Calque_1" xmlns="http://www.w3.org/2000/svg" xmlns:xlink="http://www.w3.org/1999/xlink" x="0px" y="0px"
	 width="500px" height="500px" viewBox="56 146 500 500" enable-background="new 56 146 500 500" xml:space="preserve">
<path d="M460.753,645.504c0-17.027-13.792-30.813-30.803-30.813H185.867c-17.016,0-30.818,13.791-30.818,30.813H460.753z"/>
<path d="M421.946,198.311c-19.829-31.905-63.37-54.107-114.034-54.107c-50.682,0-94.229,22.202-114.041,54.107H421.946z"/>
<polygon points="142.739,261.285 142.739,394.357 73.827,261.285 "/>
<path d="M426.569,208.777H189.231c-20.603,13.825-34.183,37.319-34.183,63.999v312.438c0,10.633,8.627,19.255,19.267,19.255h267.198
	c10.627,0,19.239-8.622,19.239-19.255V272.776C460.753,246.096,447.178,222.602,426.569,208.777z M347.414,509.1
	c0,16.738-17.68,30.296-39.502,30.296c-21.841,0-39.531-13.563-39.531-30.296V297.83c0-16.738,17.69-30.295,39.531-30.295
	c21.822,0,39.502,13.563,39.502,30.295V509.1z"/>
<path d="M307.912,511.351c-7.091,0-11.174-2.976-11.892-4.033l0.401-209.488c0.034,0.078,0.111,0.117,0.239,0.117
	c0.948,0,4.896-2.384,11.252-2.384c7.062,0,11.156,2.98,11.858,4.039l-0.385,209.494c-0.05-0.084-0.123-0.117-0.233-0.117
	C318.184,508.978,314.25,511.351,307.912,511.351z"/>
<path d="M469.252,261.285v23.556c19.2,2.957,34.021,14.142,34.021,27.092l-0.629,124.317c0,12.944-14.805,24.118-34.021,27.087
	v23.527c32.886-3.599,57.477-24.425,57.477-50.614l0.641-124.317C526.74,285.731,502.148,264.9,469.252,261.285z"/>
</svg>
