<?xml version="1.0" encoding="utf-8"?>
<!-- Generator: Adobe Illustrator 15.0.2, SVG Export Plug-In . SVG Version: 6.00 Build 0)  -->
<!DOCTYPE svg PUBLIC "-//W3C//DTD SVG 1.1//EN" "http://www.w3.org/Graphics/SVG/1.1/DTD/svg11.dtd">
<svg version="1.1"
	 id="Calque_1" xmlns:svg="http://www.w3.org/2000/svg" xmlns:cc="http://creativecommons.org/ns#" xmlns:rdf="http://www.w3.org/1999/02/22-rdf-syntax-ns#" xmlns:inkscape="http://www.inkscape.org/namespaces/inkscape" xmlns:sodipodi="http://sodipodi.sourceforge.net/DTD/sodipodi-0.dtd" xmlns:dc="http://purl.org/dc/elements/1.1/"
	 xmlns="http://www.w3.org/2000/svg" xmlns:xlink="http://www.w3.org/1999/xlink" x="0px" y="0px" width="500px" height="500px"
	 viewBox="56 146 500 500" enable-background="new 56 146 500 500" xml:space="preserve">
<g transform="translate(0,-952.36218)">
	<path d="M306.195,1103.564c-64.001-0.257-121.908,16.849-164.473,48.578c-42.565,31.729-69.423,78.725-69.423,134.64
		c0,35.251,26.834,73.73,79.559,83.959v14.152c-0.043,3.233,2.886,6.207,6.12,6.207c3.234,0,6.166-2.974,6.12-6.207v-12.24
		c3.998,0,8.159,0,12.24,0v18.36c-0.043,3.233,2.886,6.207,6.12,6.207c3.234,0,6.166-2.974,6.12-6.207v-18.36h12.24v24.48
		c-0.043,3.233,2.886,6.207,6.12,6.207c3.233,0,6.166-2.974,6.12-6.207v-24.48h12.24v30.601c-0.042,3.233,2.886,6.207,6.12,6.207
		c3.233,0,6.166-2.974,6.12-6.207v-30.601h18.36v36.721h85.678v-12.24h110.158c0-24.48,0-48.96,0-73.44
		c-30.408-10.598-64.665-25.375-92.945-36.722c-2.728,0.312-5.085,2.667-5.394,5.395c-0.308,2.728,1.465,5.552,4.055,6.462
		l57.948,24.863h-73.821v-12.24h-85.679v36.72h-18.36v-30.6c0.024-3.476-3.436-6.554-6.885-6.12
		c-2.941,0.373-5.378,3.155-5.355,6.12v30.6h-12.24v-24.48c0.024-3.476-3.436-6.554-6.885-6.12c-2.941,0.374-5.378,3.156-5.355,6.12
		v24.48h-12.24v-18.36c0.024-3.476-3.437-6.555-6.885-6.12c-2.941,0.373-5.378,3.156-5.354,6.12v18.36
		c-4.013,0.128-8.385-0.061-12.24-0.19v-12.048c0.024-3.476-3.436-6.554-6.885-6.12c-2.941,0.373-5.378,3.155-5.355,6.12v9.753
		c-39.894-9.259-55.079-36.516-55.079-58.905c0-48.224,22.278-87.069,59.669-114.942c37.391-27.872,90.223-44.037,149.746-43.795
		c60.074-0.233,115.157,28.444,155.292,70.762s64.807,98.023,64.833,149.366c-0.055,121.117-111.735,220.458-220.699,220.511
		c-123.302-0.062-215.231-86.729-219.934-197.943c-0.251-6.409-6.31-12.011-12.718-11.76c-6.408,0.25-12.011,6.307-11.762,12.716
		c5.253,124.246,109.503,221.404,244.413,221.467c123.573-0.061,245.114-109.08,245.179-244.99
		c-0.03-59.049-27.509-119.783-71.526-166.197C435.256,1135.564,374.106,1103.298,306.195,1103.564L306.195,1103.564z"/>
</g>
</svg>
