<?xml version="1.0" encoding="utf-8"?>
<!-- Generator: Adobe Illustrator 15.0.2, SVG Export Plug-In . SVG Version: 6.00 Build 0)  -->
<!DOCTYPE svg PUBLIC "-//W3C//DTD SVG 1.1//EN" "http://www.w3.org/Graphics/SVG/1.1/DTD/svg11.dtd">
<svg version="1.1" id="Calque_1" xmlns="http://www.w3.org/2000/svg" xmlns:xlink="http://www.w3.org/1999/xlink" x="0px" y="0px"
	 width="500px" height="500px" viewBox="56 146 500 500" enable-background="new 56 146 500 500" xml:space="preserve">
<g>
	<polygon points="408.331,330.766 257.596,330.766 206.294,145.45 454.963,145.45 	"/>
	<rect x="224.366" y="578.626" width="221.755" height="20.76"/>
	<g>
		<polygon points="231.023,263.774 197.805,145.45 95.761,145.45 129.534,404.689 107.021,646.55 516.239,646.55 497.567,606.136 
			181.198,606.136 181.198,264.245 		"/>
	</g>
	<g>
		<polygon points="234.746,457.025 234.746,447.692 306.82,447.692 306.82,457.025 		"/>
	</g>
	<g>
		<polygon points="234.746,480.347 234.746,471.023 306.826,471.023 306.826,480.347 		"/>
	</g>
	<g>
		<polygon points="234.74,503.673 234.74,494.339 306.826,494.339 306.826,503.673 		"/>
	</g>
	<g>
		<path d="M511.497,435.889c-0.036-26.276-21.302-47.548-47.559-47.548h-30.241v-34.88H227.747l8.086,36.817
			c-4.162,2.423-6.988,6.88-6.988,12.041c0,2.521,0.719,4.856,1.89,6.905c-12.166,6.657-20.422,19.573-20.427,34.42l-4.649,89.056
			c0,21.938,17.539,39.492,39.198,39.492H423.98c21.653,0,39.182-17.554,39.197-39.192h-5.632l5.616-0.3l-4.653-89.355
			c0-10.467-4.229-20.014-11.089-27.038h16.514c10.788,0.021,19.542,8.774,19.573,19.604v0.455l1.874,57.249
			c0.254,7.564,6.45,13.527,13.956,13.527c0.166,0,0.321,0,0.481-0.01c7.729-0.244,13.786-6.726,13.538-14.448L511.497,435.889z
			 M422.438,364.715v23.626H246.932l-5.192-23.626H422.438z M447.255,443.649l4.658,89.428
			c-0.062,15.385-12.537,27.845-27.933,27.871H244.855c-15.421-0.026-27.923-12.527-27.943-27.944l4.648-89.064
			c0.026-13.698,9.53-24.937,22.177-27.623h181.355C437.739,418.998,447.239,430.21,447.255,443.649z"/>
	</g>
</g>
</svg>
