<?xml version="1.0" encoding="utf-8"?>
<!-- Generator: Adobe Illustrator 15.0.2, SVG Export Plug-In . SVG Version: 6.00 Build 0)  -->
<!DOCTYPE svg PUBLIC "-//W3C//DTD SVG 1.1//EN" "http://www.w3.org/Graphics/SVG/1.1/DTD/svg11.dtd">
<svg version="1.1" id="Calque_1" xmlns="http://www.w3.org/2000/svg" xmlns:xlink="http://www.w3.org/1999/xlink" x="0px" y="0px"
	 width="500px" height="500px" viewBox="56 146 500 500" enable-background="new 56 146 500 500" xml:space="preserve">
<g>
	<g>
		<path d="M175.879,147.287h260.615c2.542,0,4.596,2.053,4.596,4.594v173.614H171.285V151.881
			C171.285,149.339,173.338,147.287,175.879,147.287z M219.869,383.268c0-4.497-3.617-8.114-8.113-8.114s-8.114,3.617-8.114,8.114
			v104.207c0,4.496,3.617,8.113,8.114,8.113s8.113-3.617,8.113-8.113V383.268z M219.869,197.142c0-4.497-3.617-8.114-8.113-8.114
			s-8.114,3.617-8.114,8.114v82.505c0,4.497,3.617,8.114,8.114,8.114s8.113-3.617,8.113-8.114V197.142z M441.09,333.51v286.911
			c0,2.543-2.054,4.595-4.596,4.595H175.879c-2.541,0-4.594-2.052-4.594-4.595V333.51H441.09z"/>
		<path d="M393.776,612.601h7.233c4.266,0,7.723,3.458,7.723,7.723v19.747c0,4.265-3.457,7.723-7.723,7.723h-7.233
			c-4.265,0-7.723-3.458-7.723-7.723v-19.747C386.054,616.059,389.512,612.601,393.776,612.601z"/>
		<path d="M211.169,612.601h7.233c4.265,0,7.723,3.458,7.723,7.723v19.747c0,4.265-3.458,7.723-7.723,7.723h-7.233
			c-4.265,0-7.723-3.458-7.723-7.723v-19.747C203.447,616.059,206.904,612.601,211.169,612.601z"/>
	</g>
</g>
<rect y="13.5" fill="none" width="612" height="612"/>
<text transform="matrix(1 0 0 1 0 626.8438)" font-family="'HelveticaNeue-Bold'" font-size="0.4482">Created by IYIKON</text>
<text transform="matrix(1 0 0 1 0 627.293)" font-family="'HelveticaNeue-Bold'" font-size="0.4482">from the Noun Project</text>
</svg>
