<?xml version="1.0" encoding="utf-8"?>
<!-- Generator: Adobe Illustrator 15.0.2, SVG Export Plug-In . SVG Version: 6.00 Build 0)  -->
<!DOCTYPE svg PUBLIC "-//W3C//DTD SVG 1.1//EN" "http://www.w3.org/Graphics/SVG/1.1/DTD/svg11.dtd">
<svg version="1.1"
	 id="Calque_1" xmlns:svg="http://www.w3.org/2000/svg" xmlns:cc="http://creativecommons.org/ns#" xmlns:rdf="http://www.w3.org/1999/02/22-rdf-syntax-ns#" xmlns:inkscape="http://www.inkscape.org/namespaces/inkscape" xmlns:sodipodi="http://sodipodi.sourceforge.net/DTD/sodipodi-0.dtd" xmlns:dc="http://purl.org/dc/elements/1.1/"
	 xmlns="http://www.w3.org/2000/svg" xmlns:xlink="http://www.w3.org/1999/xlink" x="0px" y="0px" width="500px" height="500px"
	 viewBox="56 146 500 500" enable-background="new 56 146 500 500" xml:space="preserve">
<g transform="translate(0,-952.36218)">
	<path d="M134.64,1097.442v134.64h342.72v-134.64H134.64z M67.512,1244.322c-6.893,0-12.432,5.539-12.432,12.431v207.698
		c0,6.893,5.539,12.431,12.432,12.431H122.4v-85.68h367.2v85.68h54.89c6.892,0,12.431-5.539,12.431-12.431v-207.698
		c0-6.892-5.539-12.431-12.431-12.431H67.512z M416.16,1293.282c10.14,0,18.359,8.22,18.359,18.36s-8.22,18.36-18.359,18.36
		s-18.36-8.221-18.36-18.36S406.021,1293.282,416.16,1293.282z M477.36,1293.282c10.14,0,18.359,8.22,18.359,18.36
		s-8.22,18.36-18.359,18.36s-18.36-8.221-18.36-18.36S467.221,1293.282,477.36,1293.282z M134.64,1403.442v195.84h342.72v-195.84
		H134.64z M183.6,1440.162h244.8c6.76,0,12.239,5.479,12.239,12.24s-5.479,12.239-12.239,12.239H183.6
		c-6.76,0-12.24-5.479-12.24-12.239S176.84,1440.162,183.6,1440.162z M183.6,1489.122h244.8c6.76,0,12.239,5.48,12.239,12.24
		s-5.479,12.24-12.239,12.24H183.6c-6.76,0-12.24-5.48-12.24-12.24S176.84,1489.122,183.6,1489.122z M183.6,1538.082h244.8
		c6.76,0,12.239,5.479,12.239,12.24s-5.479,12.239-12.239,12.239H183.6c-6.76,0-12.24-5.479-12.24-12.239
		S176.84,1538.082,183.6,1538.082z"/>
</g>
</svg>
