<?xml version="1.0" encoding="utf-8"?>
<!-- Generator: Adobe Illustrator 15.0.2, SVG Export Plug-In . SVG Version: 6.00 Build 0)  -->
<!DOCTYPE svg PUBLIC "-//W3C//DTD SVG 1.1//EN" "http://www.w3.org/Graphics/SVG/1.1/DTD/svg11.dtd">
<svg version="1.1" id="Calque_1" xmlns="http://www.w3.org/2000/svg" xmlns:xlink="http://www.w3.org/1999/xlink" x="0px" y="0px"
	 width="500px" height="500px" viewBox="56 146 500 500" enable-background="new 56 146 500 500" xml:space="preserve">
<g>
	<path d="M516.008,215.557H91.6c-19.545,0-35.6,16.055-35.6,35.6v272.934c0,19.545,16.055,35.6,35.6,35.6h41.184
		c2.094,0,4.188,2.094,4.188,4.188v8.377c0,2.094,2.094,4.188,4.188,4.188h46.768c2.095,0,4.188-2.095,4.188-4.188v-8.377
		c0-2.094,2.094-4.188,4.188-4.188h217.788c2.094,0,4.189,2.094,4.189,4.188v8.377c0,2.094,2.094,4.188,4.188,4.188h46.769
		c2.094,0,4.188-2.095,4.188-4.188v-8.377c0-2.094,2.094-4.188,4.188-4.188H518.8c19.545,0,35.601-16.055,35.601-35.6V251.157
		C551.607,231.612,535.553,215.557,516.008,215.557z M476.22,299.322h41.883c2.094,0,4.188,2.094,4.188,4.188v14.659
		c0,2.094-2.094,4.188-4.188,4.188H476.22c-2.094,0-4.188-2.094-4.188-4.188V303.51C472.729,300.717,474.126,299.322,476.22,299.322
		z M119.521,508.733c-8.376,0-14.659-6.282-14.659-14.659V281.172c0-8.376,6.282-14.659,14.659-14.659H412
		c8.377,0,14.658,6.282,14.658,14.659v212.902c0,8.377-6.281,14.659-14.658,14.659H119.521L119.521,508.733z M497.858,475.926
		c-16.055,0-29.317-13.264-29.317-29.318s13.263-29.317,29.317-29.317s29.318,13.263,29.318,29.317S513.913,475.926,497.858,475.926
		z"/>
</g>
</svg>
