<?xml version="1.0" encoding="utf-8"?>
<!-- Generator: Adobe Illustrator 15.0.2, SVG Export Plug-In . SVG Version: 6.00 Build 0)  -->
<!DOCTYPE svg PUBLIC "-//W3C//DTD SVG 1.1//EN" "http://www.w3.org/Graphics/SVG/1.1/DTD/svg11.dtd">
<svg version="1.1" id="Calque_1" xmlns="http://www.w3.org/2000/svg" xmlns:xlink="http://www.w3.org/1999/xlink" x="0px" y="0px"
	 width="500px" height="500px" viewBox="63.75 70.75 500 500" enable-background="new 63.75 70.75 500 500" xml:space="preserve">
<g>
	<path d="M67.831,462.896h491.854c1.688-0.005,1.976-0.844,0.641-1.87l-58.362-44.998c-1.339-1.038-3.784-1.91-5.488-1.91H130.65
		c-1.688,0-4.144,0.84-5.479,1.91l-57.986,44.986C65.839,462.063,66.132,462.896,67.831,462.896z"/>
	<path d="M138.446,408.155h350.63c8.458,0,15.316-6.819,15.316-15.212V166.23c0-8.392-6.858-15.211-15.316-15.211h-350.63
		c-8.463,0-15.333,6.819-15.333,15.211v226.713C123.108,401.33,129.977,408.155,138.446,408.155z M313.75,156.194
		c4.668,0,8.426,3.752,8.426,8.386c0,4.629-3.775,8.386-8.426,8.386c-4.651,0-8.425-3.757-8.425-8.386
		C305.325,159.946,309.094,156.194,313.75,156.194z M148.272,191.703c0-8.292,6.77-14.996,15.106-14.996h300.744
		c8.353,0,15.117,6.726,15.117,14.996V370.5c0,8.342-6.769,15.012-15.117,15.012H163.378c-8.342,0-15.106-6.709-15.106-15.012
		V191.703z"/>
	<path d="M558.957,467.111H354.556c-1.699,0-3.068,0.154-3.051,0.37c0.011,0.11,0.011,0.264,0.011,0.38
		c0,6.01-5.143,10.87-11.492,10.87h-52.535c-6.351,0-11.492-4.86-11.492-10.87c0-0.126,0-0.275,0.005-0.38
		c0.011-0.216-1.346-0.37-3.034-0.37H68.542c-1.688,0-3.067,1.341-3.067,2.919v2.962c0,9.646,9.518,17.49,21.252,17.49h454.057
		c11.735,0,21.241-7.845,21.241-17.49c0-0.998,0-1.969,0-2.962C562.025,468.463,560.656,467.111,558.957,467.111z M521.391,482.306
		h-24.292c-1.755,0-3.178-1.71-3.178-3.822c0-2.103,1.423-3.807,3.178-3.807h24.292c1.765,0,3.178,1.709,3.178,3.807
		C524.568,480.601,523.155,482.306,521.391,482.306z"/>
</g>
</svg>
