<?xml version="1.0" encoding="utf-8"?>
<!-- Generator: Adobe Illustrator 15.0.2, SVG Export Plug-In . SVG Version: 6.00 Build 0)  -->
<!DOCTYPE svg PUBLIC "-//W3C//DTD SVG 1.1//EN" "http://www.w3.org/Graphics/SVG/1.1/DTD/svg11.dtd">
<svg version="1.1"
	 id="Calque_1" xmlns:svg="http://www.w3.org/2000/svg" xmlns:cc="http://creativecommons.org/ns#" xmlns:rdf="http://www.w3.org/1999/02/22-rdf-syntax-ns#" xmlns:inkscape="http://www.inkscape.org/namespaces/inkscape" xmlns:sodipodi="http://sodipodi.sourceforge.net/DTD/sodipodi-0.dtd" xmlns:dc="http://purl.org/dc/elements/1.1/"
	 xmlns="http://www.w3.org/2000/svg" xmlns:xlink="http://www.w3.org/1999/xlink" x="0px" y="0px" width="500px" height="500px"
	 viewBox="56 146 500 500" enable-background="new 56 146 500 500" xml:space="preserve">
<g transform="translate(0,-952.36218)">
	<path d="M120.487,1134.19H556.92v249.963H230.073v-173.846c0-14.24-4.492-27.211-12.048-36.911
		c-7.558-9.7-18.381-16.256-30.6-16.256h-66.938V1134.19L120.487,1134.19z"/>
	<path d="M85.488,1169.325c-7.91,0-15.319,4.144-21.037,11.475c-5.718,7.331-9.371,17.81-9.371,29.453v311.354
		c0,11.609,3.651,22.113,9.371,29.453c5.72,7.341,13.134,11.475,21.037,11.475h101.937c7.939,0,15.327-4.137,21.037-11.475
		c5.712-7.338,9.372-17.838,9.372-29.453v-311.354c0-11.647-3.662-22.124-9.372-29.453c-5.708-7.328-13.09-11.475-21.037-11.475
		H85.488z M85.488,1241.426c0.192-0.009,0.384-0.009,0.576,0c0.382-0.036,0.766-0.036,1.148,0h98.493
		c3.38-0.048,6.159,2.653,6.207,6.033c0.048,3.38-2.653,6.159-6.033,6.207c-0.058,0.001-0.115,0.001-0.173,0H87.212
		c-3.38,0.475-6.505-1.881-6.979-5.261c-0.474-3.378,1.879-6.502,5.258-6.979H85.488z M86.827,1298.61
		c0.191-0.009,0.383-0.009,0.575,0h98.111c3.38-0.048,6.159,2.654,6.207,6.033c0.048,3.38-2.653,6.159-6.034,6.207
		c-0.058,0-0.115,0-0.173,0H87.402c-3.38,0.159-6.249-2.453-6.408-5.833C80.835,1301.637,83.447,1298.768,86.827,1298.61z
		 M119.914,1348.718H153c9.569,0,17.905,5.544,23.523,13.387c5.618,7.844,8.797,18.162,8.797,29.453v24.671
		c0,11.263-3.179,21.618-8.797,29.452s-13.955,13.196-23.523,13.196h-33.086c-9.55,0-17.899-5.365-23.523-13.196
		c-5.626-7.83-8.989-18.184-8.989-29.452v-24.671c0-11.297,3.363-21.613,8.989-29.453
		C102.013,1354.265,110.364,1348.718,119.914,1348.718z M136.361,1495.597c6.716,0,12.24,5.571,12.24,12.24
		c0,6.67-5.566,12.24-12.24,12.24c-6.672,0-12.24-5.516-12.24-12.24S129.646,1495.597,136.361,1495.597z"/>
	<path d="M325.698,1396.608h26.01v52.785h-26.01V1396.608z"/>
	<path d="M338.703,1460.026c23.324,0,44.404,1.975,59.288,5.164c7.441,1.594,13.296,3.564,16.83,5.355
		c1.225,0.62,2.084,1.257,2.677,1.721c-0.593,0.465-1.452,1.1-2.677,1.722c-3.534,1.79-9.389,3.569-16.83,5.163
		c-14.884,3.189-35.964,5.354-59.288,5.354c-23.296,0-44.41-2.165-59.287-5.354c-7.438-1.595-13.488-3.373-17.021-5.164
		c-1.226-0.621-2.084-1.256-2.678-1.721c0.594-0.466,1.452-1.1,2.678-1.721c3.533-1.791,9.583-3.762,17.021-5.355
		C294.293,1462.001,315.407,1460.026,338.703,1460.026L338.703,1460.026z"/>
</g>
</svg>
