<?xml version="1.0" encoding="utf-8"?>
<!-- Generator: Adobe Illustrator 15.0.2, SVG Export Plug-In . SVG Version: 6.00 Build 0)  -->
<!DOCTYPE svg PUBLIC "-//W3C//DTD SVG 1.1//EN" "http://www.w3.org/Graphics/SVG/1.1/DTD/svg11.dtd">
<svg version="1.1" id="Calque_1" xmlns="http://www.w3.org/2000/svg" xmlns:xlink="http://www.w3.org/1999/xlink" x="0px" y="0px"
	 width="500px" height="500px" viewBox="56 146 500 500" enable-background="new 56 146 500 500" xml:space="preserve">
<g>
	<g>
		<rect x="137.006" y="176.625" width="99.591" height="298.774"/>
		<path d="M545.33,216.462H256.516v268.896c0,5.508-4.462,9.96-9.959,9.96h-119.51c-5.497,0-9.959-4.452-9.959-9.96V216.462H67.292
			c-5.497,0-9.959,4.461-9.959,9.959v378.447c0,5.507,4.462,9.959,9.959,9.959H545.33c5.508,0,9.96-4.452,9.96-9.959V226.421
			C555.29,220.923,550.838,216.462,545.33,216.462z M326.229,555.072h-19.918c-5.497,0-9.959-4.451-9.959-9.959
			s4.462-9.96,9.959-9.96h19.918c5.508,0,9.959,4.452,9.959,9.96S331.737,555.072,326.229,555.072z M326.229,495.318h-19.918
			c-5.497,0-9.959-4.452-9.959-9.96s4.462-9.959,9.959-9.959h19.918c5.508,0,9.959,4.451,9.959,9.959
			S331.737,495.318,326.229,495.318z M326.229,435.562h-19.918c-5.497,0-9.959-4.452-9.959-9.959s4.462-9.959,9.959-9.959h19.918
			c5.508,0,9.959,4.452,9.959,9.959S331.737,435.562,326.229,435.562z M405.902,555.072h-19.918c-5.508,0-9.959-4.451-9.959-9.959
			s4.451-9.96,9.959-9.96h19.918c5.508,0,9.959,4.452,9.959,9.96S411.41,555.072,405.902,555.072z M405.902,495.318h-19.918
			c-5.508,0-9.959-4.452-9.959-9.96s4.451-9.959,9.959-9.959h19.918c5.508,0,9.959,4.451,9.959,9.959
			S411.41,495.318,405.902,495.318z M405.902,435.562h-19.918c-5.508,0-9.959-4.452-9.959-9.959s4.451-9.959,9.959-9.959h19.918
			c5.508,0,9.959,4.452,9.959,9.959S411.41,435.562,405.902,435.562z M485.576,555.072h-19.918c-5.508,0-9.96-4.451-9.96-9.959
			s4.452-9.96,9.96-9.96h19.918c5.507,0,9.959,4.452,9.959,9.96S491.083,555.072,485.576,555.072z M485.576,495.318h-19.918
			c-5.508,0-9.96-4.452-9.96-9.96s4.452-9.959,9.96-9.959h19.918c5.507,0,9.959,4.451,9.959,9.959S491.083,495.318,485.576,495.318z
			 M485.576,435.562h-19.918c-5.508,0-9.96-4.452-9.96-9.959s4.452-9.959,9.96-9.959h19.918c5.507,0,9.959,4.452,9.959,9.959
			S491.083,435.562,485.576,435.562z M495.535,365.849c0,5.497-4.452,9.959-9.959,9.959H306.312c-5.497,0-9.959-4.462-9.959-9.959
			v-79.673c0-5.498,4.462-9.959,9.959-9.959h179.265c5.507,0,9.959,4.462,9.959,9.959V365.849z"/>
		<rect x="316.271" y="296.135" width="159.346" height="59.754"/>
	</g>
</g>
</svg>
