<?xml version="1.0" encoding="utf-8"?>
<!-- Generator: Adobe Illustrator 15.0.2, SVG Export Plug-In . SVG Version: 6.00 Build 0)  -->
<!DOCTYPE svg PUBLIC "-//W3C//DTD SVG 1.1//EN" "http://www.w3.org/Graphics/SVG/1.1/DTD/svg11.dtd">
<svg version="1.1"
	 id="Calque_1" xmlns:svg="http://www.w3.org/2000/svg" xmlns:cc="http://creativecommons.org/ns#" xmlns:rdf="http://www.w3.org/1999/02/22-rdf-syntax-ns#" xmlns:inkscape="http://www.inkscape.org/namespaces/inkscape" xmlns:sodipodi="http://sodipodi.sourceforge.net/DTD/sodipodi-0.dtd" xmlns:dc="http://purl.org/dc/elements/1.1/"
	 xmlns="http://www.w3.org/2000/svg" xmlns:xlink="http://www.w3.org/1999/xlink" x="0px" y="0px" width="552.264px"
	 height="568.575px" viewBox="29.139 161.925 552.264 568.575" enable-background="new 29.139 161.925 552.264 568.575"
	 xml:space="preserve">
<g transform="translate(0,-952.36213)">
	<path d="M305.949,1231.165c-16.893,0-30.632,13.739-30.632,30.632c0,16.999,13.744,30.632,30.632,30.632
		c16.998,0,30.775-13.634,30.775-30.632C336.725,1244.904,322.947,1231.165,305.949,1231.165z M98.675,1240.174
		c-16.893,0-30.632,13.739-30.632,30.632c0,16.998,13.744,30.632,30.632,30.632c16.998,0,30.775-13.634,30.775-30.632
		C129.45,1253.913,115.673,1240.174,98.675,1240.174z M513.331,1240.174c-16.998,0-30.774,13.739-30.774,30.632
		c0,16.998,13.777,30.632,30.774,30.632c16.889,0,30.632-13.634,30.632-30.632C543.963,1253.913,530.224,1240.174,513.331,1240.174z
		 M265.369,1301.428c-3.962,0.19-7.576,2.316-9.662,5.69l-42.861,67.212c-5.092,7.999,0.646,18.47,10.127,18.483l65.969,0.062
		c16.26,0.227,16.26-24.277,0-24.047l-44.06-0.062l19.547-30.649v26.087h83.164v-26.024l19.521,30.604l-44.06,0.062
		c-16.26-0.227-16.26,24.276,0,24.047l65.969-0.061c9.486,0,15.23-10.481,10.137-18.483l-42.871-67.213
		c-2.148-3.475-5.916-5.622-10.001-5.698h-40.356h-40.366c-0.064,0.002-0.132,0-0.197,0l0,0V1301.428z M77.973,1306.197h-0.036
		c-17.953-0.514-22.396,6.505-26.033,33.673v0.123l-9.832,73.717c-4.652,34.867-6.242,46.779,36.536,46.779h23.287h30.73v68.232
		c-0.165,11.615,8.506,17.418,17.177,17.418s17.341-5.803,17.177-17.418v-85.41c-0.001-9.485-7.69-17.176-17.177-17.176h-42.808
		l8.249-61.81l11.675,22.034c2.083,3.934,6.168,6.395,10.619,6.396l46.852,0.062c16.259,0.226,16.259-24.277,0-24.048l-39.623-0.062
		l-17.893-33.762v-0.062c-10.216-19.27-17.263-25.014-41.17-28.153c-2.799-0.288-5.408-0.508-7.729-0.575V1306.197z
		 M534.032,1306.197c-2.321,0.067-4.93,0.281-7.729,0.575c-23.907,3.14-30.954,8.884-41.17,28.154v0.061l-17.893,33.763
		l-39.623,0.062c-16.26-0.232-16.26,24.276,0,24.047l46.852-0.062c4.451-0.003,8.536-2.464,10.619-6.396l11.675-22.034l8.248,61.809
		h-42.807c-9.486,0.002-17.177,7.691-17.178,17.177v85.409c-0.163,11.615,8.507,17.42,17.178,17.42
		c8.67,0,17.341-5.805,17.176-17.42v-68.232h30.73h23.287c42.778,0,41.188-11.912,36.536-46.779l-9.832-73.717v-0.123
		c-3.637-27.168-8.08-34.188-26.033-33.673h-0.035L534.032,1306.197z M162.854,1397.484v24.048h286.297v-24.048H162.854
		L162.854,1397.484z M186.902,1426.157v120.014h24.047v-120.014H186.902z M250.966,1426.157l7.989,103.9
		c0.509,9.475,8.601,16.742,18.075,16.232c9.474-0.508,16.741-8.602,16.232-18.074c-0.014-0.266-0.035-0.531-0.062-0.797
		l-6.558-85.409h38.719l-6.566,85.409c-0.772,9.455,6.267,17.748,15.723,18.52c9.456,0.773,17.748-6.266,18.521-15.721
		c0.004-0.055,0.008-0.107,0.012-0.16l7.989-103.9h-34.461h-41.152H250.966L250.966,1426.157z M401.057,1426.157v120.014h24.047
		v-120.014H401.057z M30.603,1465.126v81.035H54.65v-56.988h49.293v56.988h24.047v-56.988v-24.047h-24.047H54.65H30.603
		L30.603,1465.126z M484.015,1465.126v24.047v56.988h24.047v-56.988h49.294v56.988h24.048v-81.035h-24.048h-49.294H484.015
		L484.015,1465.126z"/>
</g>
</svg>
